# xmcd
#
# Track frame offsets:
# 150
# 62365
# 74060
# 84510
# 95857
# 111267
# 121705
# 137247
# 173140
# 191685
#
# Disc length: 2817 seconds
#
#
# Revision: 3
# Processed by: cddbd v1.5.1PL0 Copyright (c) Steve Scherf et al.
# Submitted via: FreeRIP 2.941 
#
DISCID=8f0aff0a
DTITLE=Vinicius de Moraes - 23 - Gravado Ao Vivo No Canecão
DYEAR=1977
DGENRE=MPB
TTITLE0=Abertura - Estamo Aí - Dia Da Criação - Tarde Em Itapoã - Gente Humilde
TTITLE1=Carta Ao Tom - Carta Do Tom
TTITLE2=Corcovado
TTITLE3=Wave
TTITLE4=Pela Luz Dos Olhos Teus
TTITLE5=Saia Do Caminho
TTITLE6=Samba Pra Vinicius - Vai Levando
TTITLE7=Água De Beber - Garota De Ipanema - Sei Lá... A Vida Tem Sempre Razão
TTITLE8=Minha Namorada
TTITLE9=Chega De Saudade - Se Todos Fossem Iguais A Você - Final- Estamos Aí
EXTD=Tom, Vinicius, Toquinho e Miucha\nYEAR: 1977
EXTT0=
EXTT1=
EXTT2=
EXTT3=
EXTT4=
EXTT5=
EXTT6=
EXTT7=
EXTT8=
EXTT9=
PLAYORDER=
